<?xml version="1.0" standalone="no"?>
<!DOCTYPE svg PUBLIC "-//W3C//DTD SVG 20010904//EN"
 "http://www.w3.org/TR/2001/REC-SVG-20010904/DTD/svg10.dtd">
<svg version="1.0" xmlns="http://www.w3.org/2000/svg"
 width="64.000000pt" height="64.000000pt" viewBox="0 0 64.000000 64.000000"
 preserveAspectRatio="xMidYMid meet">

<g transform="translate(0.000000,64.000000) scale(0.100000,-0.100000)"
fill="#000000" stroke="none">
<path d="M186 624 c-13 -33 -18 -121 -8 -128 17 -11 -11 -80 -46 -112 -21 -19
-33 -39 -34 -59 -1 -16 -10 -41 -20 -53 -19 -26 -24 -8 42 -174 38 -98 39 -98
200 -98 161 0 162 0 200 98 65 164 61 147 42 173 -17 24 -18 27 -20 66 -1 12
-16 38 -32 56 -18 20 -30 46 -30 62 0 15 -9 39 -21 53 -11 15 -30 43 -42 61
-24 38 -80 76 -97 66 -5 -3 -10 -19 -10 -35 0 -39 -14 -45 -49 -19 -16 12 -34
18 -40 15 -7 -5 -11 2 -11 18 0 29 -15 35 -24 10z m224 -98 c0 -28 -10 -41
-45 -59 -26 -13 -140 -47 -159 -47 -3 0 -6 11 -6 25 0 21 12 33 60 63 43 26
64 46 72 70 l12 32 33 -32 c18 -18 33 -41 33 -52z m-152 23 c3 -17 -43 -43
-59 -34 -13 8 -11 29 3 43 17 17 52 11 56 -9z m197 -80 c9 -27 -16 -54 -77
-85 -45 -23 -62 -44 -36 -44 6 0 36 14 67 31 l55 31 28 -31 c35 -40 37 -71 4
-71 -13 0 -29 -7 -36 -15 -10 -12 -15 -12 -36 2 -16 10 -34 13 -56 9 -41 -8
-55 -8 -96 0 -22 4 -40 1 -56 -9 -21 -14 -26 -14 -36 -2 -7 8 -23 15 -36 15
-17 0 -24 6 -24 20 0 31 34 58 95 75 30 8 80 22 110 30 30 9 67 26 82 40 34
30 40 30 48 4z m-275 -223 c16 -38 53 -217 46 -223 -3 -3 -17 -1 -29 4 -17 8
-36 39 -66 110 -22 54 -41 104 -41 111 0 16 38 31 63 24 10 -3 23 -14 27 -26z
m110 14 c12 -12 20 -33 20 -55 0 -19 5 -35 10 -35 6 0 10 16 10 35 0 22 8 43
20 55 24 24 32 25 59 3 l22 -18 -21 -90 c-11 -50 -22 -100 -25 -113 -8 -35
-49 -26 -53 11 -2 15 -7 27 -12 27 -5 0 -10 -12 -12 -27 -4 -37 -45 -46 -53
-11 -3 13 -14 63 -25 113 l-21 90 22 18 c27 22 35 21 59 -3z m257 -6 c3 -8
-14 -59 -37 -115 -31 -72 -50 -104 -67 -112 -12 -5 -26 -7 -29 -4 -6 5 23 151
43 220 9 34 78 42 90 11z"/>
<path d="M310 120 c0 -5 5 -10 10 -10 6 0 10 5 10 10 0 6 -4 10 -10 10 -5 0
-10 -4 -10 -10z"/>
</g>
</svg>
